<?xml version="1.0" encoding="UTF-8" standalone="no"?>
<svg
   xmlns:dc="http://purl.org/dc/elements/1.1/"
   xmlns:cc="http://creativecommons.org/ns#"
   xmlns:rdf="http://www.w3.org/1999/02/22-rdf-syntax-ns#"
   xmlns:svg="http://www.w3.org/2000/svg"
   xmlns="http://www.w3.org/2000/svg"
   xmlns:sodipodi="http://sodipodi.sourceforge.net/DTD/sodipodi-0.dtd"
   xmlns:inkscape="http://www.inkscape.org/namespaces/inkscape"
   id="svg2960"
   version="1.1"
   viewBox="0 0 520 180"
   height="180mm"
   width="520mm"
   sodipodi:docname="logo.svg"
   inkscape:version="0.92.4 5da689c313, 2019-01-14">
  <sodipodi:namedview
     pagecolor="#ffffff"
     bordercolor="#666666"
     borderopacity="1"
     objecttolerance="10"
     gridtolerance="10"
     guidetolerance="10"
     inkscape:pageopacity="0"
     inkscape:pageshadow="2"
     inkscape:window-width="2558"
     inkscape:window-height="1412"
     id="namedview963"
     showgrid="false"
     inkscape:zoom="0.75276417"
     inkscape:cx="983.53926"
     inkscape:cy="632.67554"
     inkscape:window-x="0"
     inkscape:window-y="26"
     inkscape:window-maximized="1"
     inkscape:current-layer="svg2960" />
  <defs
     id="defs2954" />
  <metadata
     id="metadata2957">
    <rdf:RDF>
      <cc:Work
         rdf:about="">
        <dc:format>image/svg+xml</dc:format>
        <dc:type
           rdf:resource="http://purl.org/dc/dcmitype/StillImage" />
        <dc:title></dc:title>
      </cc:Work>
    </rdf:RDF>
  </metadata>
  <g
     id="layer1"
     transform="translate(6.3500001,-119.11668)">
    <g
       transform="matrix(1.763313,0,0,1.763313,-32913.204,-10660.236)"
       id="g2885">
      <g
         id="g2850">
        <g
           transform="matrix(0.13187107,0,0,0.13187107,17946.759,5583.85)"
           id="g2735">
          <path
             id="path2723"
             style="font-style:normal;font-variant:normal;font-weight:normal;font-stretch:normal;font-size:206.06764221px;line-height:1.25;font-family:ImperatorSmallCaps;-inkscape-font-specification:ImperatorSmallCaps;letter-spacing:0px;word-spacing:0px;fill:#000000;fill-opacity:1;stroke:none;stroke-width:0.86847299"
             d="m 6655.9675,4342.7758 q 0,-23.2751 0,-35.7811 0.347,-12.8534 1.389,-29.1807 l 0.348,-4.516 q 0.695,-14.243 3.126,-22.9277 2.78,-9.0321 11.464,-13.5482 l 0.347,-2.4317 q -5.558,0.3473 -13.895,1.0421 -12.506,1.3896 -19.106,1.3896 -14.243,0 -37.171,-2.0844 v 2.4318 q 12.158,7.9899 15.632,15.6325 3.474,7.2952 4.517,23.6225 0.694,9.7268 1.042,33.0019 0.347,7.2952 0.347,11.1165 v 0.3474 q -0.347,9.3795 -2.084,14.9377 -1.39,5.5582 -6.948,7.6426 -20.496,7.6425 -36.476,12.1586 -15.98,4.5161 -27.791,4.5161 -23.275,0 -44.118,-11.1165 -20.844,-11.4638 -36.476,-31.265 -15.633,-19.8012 -24.318,-44.8132 -8.684,-25.3595 -8.684,-51.761 0,-26.4016 8.337,-49.3293 8.685,-22.9277 24.665,-39.6024 15.98,-17.022 38.56,-26.0542 22.928,-9.3795 50.719,-9.3795 29.875,0 54.887,12.506 9.727,4.8635 16.327,12.5061 6.948,7.2951 13.549,17.022 4.863,7.2952 6.253,7.2952 1.042,0 1.737,-3.8213 0.694,-4.1686 0.694,-7.2951 0,-3.4739 -0.347,-12.5061 -0.695,-10.0742 -0.695,-15.2851 0,-3.4739 0.348,-7.9899 0,-2.7792 0,-3.4739 0,-2.4318 -1.39,-2.4318 -0.695,0 -3.474,0.3474 -4.863,0.6948 -9.727,0.6948 -5.211,0 -14.59,-4.1687 -7.295,-2.7791 -10.769,-3.4738 -16.327,-3.1266 -31.96,-4.8635 -15.285,-2.0843 -27.791,-2.0843 -33.002,0 -61.141,11.8112 -28.138,11.8112 -48.634,32.6546 -20.149,20.8433 -31.265,48.2871 -10.769,27.4437 -10.769,57.6666 0,29.8755 11.116,56.6244 11.464,26.749 31.613,47.245 20.148,20.1485 46.897,31.6124 26.749,11.1164 56.277,11.1164 23.275,0 42.034,-3.1265 19.107,-3.1265 36.824,-10.0742 3.821,-1.3896 12.506,-4.1687 10.421,-3.1265 14.59,-5.2109 1.737,-1.0421 2.432,-4.516 1.042,-3.8213 1.042,-6.9478 z"
             inkscape:connector-curvature="0" />
          <path
             id="path2725"
             style="font-style:normal;font-variant:normal;font-weight:normal;font-stretch:normal;font-size:206.06764221px;line-height:1.25;font-family:ImperatorSmallCaps;-inkscape-font-specification:ImperatorSmallCaps;letter-spacing:0px;word-spacing:0px;fill:#000000;fill-opacity:1;stroke:none;stroke-width:0.86847299"
             d="m 6715.4635,4371.9565 q 9.379,0 30.223,1.3895 h 1.042 v -2.0843 q -7.99,-3.1265 -12.159,-9.0321 -3.821,-5.9056 -4.516,-13.8956 -2.084,-48.6345 -2.084,-72.9517 v -32.6546 q 0,-28.4859 1.389,-41.6867 0.695,-9.7269 3.822,-17.3695 3.473,-7.6425 11.116,-11.1164 v -1.3896 q -3.821,0 -11.811,0.6948 -11.811,0.6948 -17.717,0.6948 -11.116,0 -29.876,-1.3896 v 1.3896 q 9.38,5.5582 12.507,12.1586 3.126,6.6004 3.821,15.6325 1.042,18.0643 1.389,37.5181 0.695,19.4538 0.695,38.2128 0,48.9818 -0.347,73.6465 -0.348,7.2951 -4.864,12.8534 -4.168,5.5582 -11.464,8.6847 v 2.0843 q 18.065,-1.3895 28.834,-1.3895 z"
             inkscape:connector-curvature="0" />
          <path
             id="path2727"
             style="font-style:normal;font-variant:normal;font-weight:normal;font-stretch:normal;font-size:206.06764221px;line-height:1.25;font-family:ImperatorSmallCaps;-inkscape-font-specification:ImperatorSmallCaps;letter-spacing:0px;word-spacing:0px;fill:#000000;fill-opacity:1;stroke:none;stroke-width:0.86847299"
             d="m 6855.7865,4376.1252 q 21.191,0 35.087,-2.4318 14.242,-2.0843 25.011,-9.7269 10.77,-7.9899 16.675,-23.9698 5.906,-16.3273 5.906,-43.0763 0,-2.0843 0.347,-10.7691 0,-8.6847 0,-10.4216 0,-24.3173 0,-40.6446 0.348,-16.3273 0.695,-33.6967 0.695,-12.8534 3.821,-18.759 3.474,-5.9056 11.812,-9.7269 v -1.737 q -20.149,1.3896 -29.529,1.3896 -4.863,0 -14.243,-0.6948 -3.473,-0.3474 -7.295,-0.3474 v 1.737 q 11.117,5.5582 14.591,11.1164 3.473,5.5583 3.821,16.3273 0.695,20.8434 0.695,32.6546 0,9.7269 0,21.8855 -0.348,18.0643 -0.348,21.1908 0,14.5903 -0.347,28.8333 -0.695,18.759 -5.211,30.5702 -4.169,11.8112 -12.159,18.0642 -7.989,5.9057 -19.106,7.99 -10.769,2.0843 -27.444,2.0843 -11.811,0 -21.191,-1.7369 -9.379,-2.0843 -17.369,-7.2952 -7.642,-5.5582 -12.506,-15.9799 -4.863,-10.769 -5.211,-27.7911 -0.695,-12.8534 -1.042,-20.1486 0,-7.6426 0,-15.2851 v -32.6546 q 0,-28.4859 1.39,-41.3393 0.694,-9.7269 3.821,-17.3695 3.474,-7.6425 11.116,-11.1164 v -1.737 q -3.821,0 -11.811,0.6948 -11.811,0.6948 -17.717,0.6948 -11.116,0 -29.875,-1.3896 v 1.737 q 9.032,5.5582 12.158,12.1586 3.474,6.6004 4.169,15.2851 0.348,6.6004 0.348,20.496 0,9.7269 -0.348,28.8333 -0.347,18.759 -0.347,27.4437 0,4.5161 0.347,12.8534 0,12.1586 0.348,25.012 0.347,19.8012 7.642,32.3072 7.643,12.5061 19.454,18.7591 11.811,5.9056 25.012,7.6425 13.201,2.0844 28.833,2.0844 z"
             inkscape:connector-curvature="0" />
          <path
             id="path2729"
             style="font-style:normal;font-variant:normal;font-weight:normal;font-stretch:normal;font-size:206.06764221px;line-height:1.25;font-family:ImperatorSmallCaps;-inkscape-font-specification:ImperatorSmallCaps;letter-spacing:0px;word-spacing:0px;fill:#000000;fill-opacity:1;stroke:none;stroke-width:0.86847299"
             d="m 6998.7755,4371.9565 q 11.464,0 28.486,0.6948 12.158,0.6947 18.411,0.6947 6.601,0.3474 15.633,0.3474 9.379,0 28.833,-1.3895 2.432,0 7.295,-0.3474 4.517,0 6.948,-2.7791 2.779,-2.7791 4.516,-6.9478 1.389,-4.8635 6.948,-15.9799 5.558,-11.4639 5.558,-14.5904 0,-1.0421 -0.347,-2.0843 -0.348,-1.0422 -1.39,-1.0422 -2.084,0 -7.295,7.2952 -7.99,11.4639 -14.938,16.6747 -7.989,5.5582 -20.496,8.3373 -12.158,2.7792 -23.275,2.7792 -16.674,0 -28.138,-4.8635 -11.117,-5.2108 -11.811,-17.7169 -1.043,-19.4538 -1.737,-34.0441 -0.348,-14.5903 -0.348,-31.9598 v -32.6546 q 0,-28.4859 1.39,-41.3393 0.695,-9.7269 3.821,-17.3695 3.474,-7.9899 11.117,-11.1164 v -1.737 q -2.78,0 -12.159,0.6948 -11.117,0.6948 -17.37,0.6948 -11.811,0 -29.875,-1.3896 v 1.737 q 9.032,5.5582 12.159,12.1586 3.474,6.6004 4.168,15.2851 1.043,22.5803 1.39,41.3394 0.695,18.759 0.695,34.3915 0,40.9919 -0.348,65.6565 -0.347,7.6426 -6.947,17.3695 -6.601,9.3795 -13.201,12.1586 l 0.347,2.7791 h 2.084 q 8.685,-0.6948 16.328,-1.0421 7.642,-0.6948 13.548,-0.6948 z"
             inkscape:connector-curvature="0" />
          <path
             id="path2731"
             style="font-style:normal;font-variant:normal;font-weight:normal;font-stretch:normal;font-size:206.06764221px;line-height:1.25;font-family:ImperatorSmallCaps;-inkscape-font-specification:ImperatorSmallCaps;letter-spacing:0px;word-spacing:0px;fill:#000000;fill-opacity:1;stroke:none;stroke-width:0.86847299"
             d="m 7163.2715,4371.9565 q 9.38,0 30.225,1.3895 h 1.041 v -2.0843 q -7.99,-3.1265 -12.159,-9.0321 -3.822,-5.9056 -4.516,-13.8956 -2.085,-48.6345 -2.085,-72.9517 v -32.6546 q 0,-28.4859 1.39,-41.6867 0.695,-9.7269 3.821,-17.3695 3.475,-7.6425 11.118,-11.1164 v -1.3896 q -3.821,0 -11.812,0.6948 -11.812,0.6948 -17.718,0.6948 -11.117,0 -29.877,-1.3896 v 1.3896 q 9.38,5.5582 12.507,12.1586 3.127,6.6004 3.822,15.6325 1.041,18.0643 1.389,37.5181 0.695,19.4538 0.695,38.2128 0,48.9818 -0.348,73.6465 -0.347,7.2951 -4.863,12.8534 -4.17,5.5582 -11.465,8.6847 v 2.0843 q 18.065,-1.3895 28.835,-1.3895 z"
             inkscape:connector-curvature="0" />
          <path
             id="path2733"
             style="font-style:normal;font-variant:normal;font-weight:normal;font-stretch:normal;font-size:206.06764221px;line-height:1.25;font-family:ImperatorSmallCaps;-inkscape-font-specification:ImperatorSmallCaps;letter-spacing:0px;word-spacing:0px;fill:#000000;fill-opacity:1;stroke:none;stroke-width:0.86847299"
             d="m 7323.3995,4170.4708 q -23.623,0 -45.16,7.9899 -21.539,7.99 -37.866,22.2329 -15.98,13.8956 -25.36,32.6546 -9.033,18.759 -9.033,39.9498 0,20.8433 9.033,39.6023 9.032,18.759 25.36,33.002 16.327,13.8956 37.866,21.8855 21.537,7.99 45.16,7.99 23.969,0 45.508,-7.2952 21.538,-7.6426 37.518,-21.5381 16.327,-14.243 25.359,-33.002 9.033,-19.1064 9.033,-41.3393 0,-21.5382 -7.99,-39.9498 -7.643,-18.759 -22.928,-32.6546 -14.938,-13.8955 -37.171,-21.5381 -21.885,-7.9899 -49.329,-7.9899 z m 0,11.8112 q 19.454,0 35.781,6.9478 16.675,6.6004 28.833,19.4538 12.506,12.8534 19.107,31.6124 6.947,18.4116 6.947,41.3393 0,18.4116 -6.947,33.6967 -6.601,14.9378 -19.107,26.0542 -12.158,10.7691 -28.833,16.6747 -16.327,5.5583 -35.781,5.5583 -18.76,0 -35.086,-7.6426 -15.98,-7.99 -28.139,-21.5382 -11.811,-13.8955 -18.412,-31.265 -6.252,-17.7168 -6.252,-36.4759 0,-18.4116 6.252,-34.0441 6.601,-15.6325 18.412,-26.7489 11.811,-11.4639 27.791,-17.3695 16.328,-6.253 35.434,-6.253 z"
             inkscape:connector-curvature="0" />
        </g>
        <g
           transform="matrix(0.13187107,0,0,0.13187107,17946.759,5578.5583)"
           id="g2747">
          <path
             id="path2737"
             style="font-style:normal;font-variant:normal;font-weight:normal;font-stretch:normal;font-size:206.06764221px;line-height:1.25;font-family:ImperatorSmallCaps;-inkscape-font-specification:ImperatorSmallCaps;letter-spacing:0px;word-spacing:0px;fill:#000000;fill-opacity:1;stroke:none;stroke-width:0.86847299"
             d="m 6440.2385,4523.0708 q -8.337,0 -18.411,-0.3474 -10.075,-0.6948 -20.149,-1.7369 v 3.1265 q 12.159,6.6004 16.327,15.2851 4.516,8.6847 5.211,21.1907 1.39,26.0542 2.084,53.8453 0.695,27.7912 0.695,54.5402 0,70.1726 -0.695,105.2589 -0.347,9.7269 -7.642,17.7168 -6.948,7.6426 -17.022,12.8534 v 3.1265 q 7.99,-0.6947 19.454,-1.0421 11.463,-0.6948 20.843,-0.6948 16.675,0 39.255,1.7369 v -2.7791 q -10.769,-4.8634 -15.285,-11.8112 -4.516,-6.9478 -5.558,-21.1908 -2.779,-41.3393 -2.779,-93.1002 4.515,0 13.2,-1.0422 9.38,-0.6948 12.854,-0.6948 h 18.411 q 9.38,10.4217 17.37,21.8855 7.99,11.1165 20.843,30.9177 14.243,21.8855 24.317,35.7811 10.422,13.8955 22.928,26.4015 12.854,12.1586 28.486,19.1064 15.98,7.2952 35.086,7.2952 3.822,0 9.38,-1.0421 5.558,-1.0422 10.769,-3.1266 5.211,-1.7369 8.684,-4.1686 3.474,-2.4318 3.474,-4.8635 0,-2.0843 -2.431,-2.0843 -3.127,0 -7.99,0.3474 -4.864,0.6947 -7.99,0.6947 -14.591,0 -29.181,-9.7268 -14.243,-9.7269 -27.791,-25.3595 -13.201,-15.9799 -24.665,-33.0019 -11.463,-17.0221 -26.749,-42.0341 -10.074,-16.6747 -13.895,-22.2329 8.337,-2.4318 16.327,-7.6426 15.633,-10.7691 24.665,-28.4859 9.032,-18.0643 9.032,-38.2128 0,-18.759 -8.685,-36.4759 -8.337,-18.0642 -25.012,-28.1385 -10.422,-6.253 -25.707,-9.7269 -15.285,-3.4739 -27.443,-3.4739 -10.075,0 -30.223,1.3896 -22.581,1.7369 -34.392,1.7369 z m 17.717,38.9076 q 0,-1.737 0.347,-7.2952 0.348,-12.506 2.779,-17.7168 2.085,-0.3474 6.601,-0.6948 11.464,-1.0422 18.064,-1.0422 14.243,0 25.36,1.737 11.463,1.7369 19.801,7.2951 12.158,8.3374 19.106,22.5803 6.948,13.8956 6.948,28.4859 0,34.739 -14.938,50.7189 -14.938,15.6325 -52.803,15.6325 -2.779,0 -13.896,0 -12.853,0.3474 -18.758,0.3474 0,-50.3715 0.347,-65.6566 0,-12.8534 0.347,-20.1486 0.348,-7.2951 0.695,-14.2429 z"
             inkscape:connector-curvature="0" />
          <path
             id="path2739"
             style="font-style:normal;font-variant:normal;font-weight:normal;font-stretch:normal;font-size:206.06764221px;line-height:1.25;font-family:ImperatorSmallCaps;-inkscape-font-specification:ImperatorSmallCaps;letter-spacing:0px;word-spacing:0px;fill:#000000;fill-opacity:1;stroke:none;stroke-width:0.86847299"
             d="m 6788.2895,4604.7073 q -23.622,0 -45.16,7.9899 -21.538,7.99 -37.866,22.2329 -15.979,13.8956 -25.359,32.6546 -9.032,18.759 -9.032,39.9498 0,20.8433 9.032,39.6023 9.032,18.7591 25.359,33.002 16.328,13.8956 37.866,21.8855 21.538,7.99 45.16,7.99 23.97,0 45.509,-7.2952 21.538,-7.6426 37.518,-21.5381 16.327,-14.243 25.359,-33.002 9.032,-19.1064 9.032,-41.3393 0,-21.5382 -7.99,-39.9498 -7.642,-18.759 -22.928,-32.6546 -14.937,-13.8955 -37.17,-21.5381 -21.886,-7.9899 -49.33,-7.9899 z m 0,11.8112 q 19.454,0 35.782,6.9478 16.674,6.6004 28.833,19.4538 12.506,12.8534 19.106,31.6124 6.948,18.4116 6.948,41.3393 0,18.4116 -6.948,33.6968 -6.6,14.9377 -19.106,26.0541 -12.159,10.7691 -28.833,16.6747 -16.328,5.5583 -35.782,5.5583 -18.759,0 -35.086,-7.6426 -15.98,-7.9899 -28.138,-21.5381 -11.812,-13.8956 -18.412,-31.2651 -6.253,-17.7168 -6.253,-36.4758 0,-18.4117 6.253,-34.0442 6.6,-15.6325 18.412,-26.7489 11.811,-11.4639 27.791,-17.3695 16.327,-6.253 35.433,-6.253 z"
             inkscape:connector-curvature="0" />
          <path
             id="path2741"
             style="font-style:normal;font-variant:normal;font-weight:normal;font-stretch:normal;font-size:206.06764221px;line-height:1.25;font-family:ImperatorSmallCaps;-inkscape-font-specification:ImperatorSmallCaps;letter-spacing:0px;word-spacing:0px;fill:#000000;fill-opacity:1;stroke:none;stroke-width:0.86847299"
             d="m 7120.3455,4634.9301 q 0,-0.6948 0,-1.7369 -0.348,-1.3896 -0.348,-2.0844 0,-7.2951 4.517,-14.2429 4.516,-7.2952 11.811,-10.4217 v -1.7369 l -5.559,0.3474 q -14.242,1.0421 -22.232,1.0421 l -13.548,28.4859 -62.53,128.8814 h -5.211 l -82.679,-157.3673 q -13.548,0 -27.791,-1.0421 v 1.7369 q 17.37,10.0743 17.37,24.3172 l -22.581,143.8192 q -1.389,11.1164 -7.642,19.8012 -5.906,8.6847 -15.285,11.4638 l -1.737,1.3896 q 10.769,-1.3896 24.664,-1.3896 6.948,0 16.675,0.3474 9.727,0.3474 14.938,1.0422 l -0.695,-2.0844 q -15.285,-5.2108 -15.285,-20.1486 0,-3.4738 0.347,-4.8634 l 17.022,-111.5119 2.432,-0.6948 q 46.897,85.1103 49.677,90.3212 14.59,26.7489 19.106,35.0863 4.863,7.9899 5.558,9.7269 1.042,1.3895 1.39,2.0843 0.347,0.3474 1.737,1.737 1.042,1.7369 1.737,1.7369 1.389,0 3.126,-2.7791 l 66.699,-139.6505 h 1.39 l 19.106,123.3232 q 0,0.6948 0,1.3896 0.348,1.0421 0.348,1.0421 0,3.8213 -2.085,6.253 -2.085,2.0844 -5.905,4.1687 -3.822,2.0843 -3.822,3.4739 v 1.7369 q 14.937,-2.4317 33.003,-2.4317 16.327,0 30.919,2.4317 v -1.7369 q -9.381,-3.1265 -15.981,-9.7269 -6.601,-6.6004 -8.338,-15.2851 z"
             inkscape:connector-curvature="0" />
          <path
             id="path2743"
             style="font-style:normal;font-variant:normal;font-weight:normal;font-stretch:normal;font-size:206.06764221px;line-height:1.25;font-family:ImperatorSmallCaps;-inkscape-font-specification:ImperatorSmallCaps;letter-spacing:0px;word-spacing:0px;fill:#000000;fill-opacity:1;stroke:none;stroke-width:0.86847299"
             d="m 7312.9025,4634.5827 -12.854,-28.4859 h -7.643 q -7.295,0 -17.369,-0.3474 -10.074,-0.3474 -15.98,-0.6947 l 0.695,1.7369 q 9.031,5.2108 14.937,12.8534 6.254,7.2952 6.254,14.2429 0,1.3896 -0.695,4.1687 l -68.089,142.4296 q -9.033,19.4538 -30.225,25.7068 l -1.737,1.3896 q 10.77,-1.3896 24.667,-1.3896 12.854,0 22.928,1.3896 v -1.3896 q -5.211,-5.2108 -5.211,-9.7269 0,-3.1265 2.779,-9.3795 l 0.694,-1.737 25.013,-56.6244 q 20.843,-1.7369 38.56,-1.7369 17.022,0 37.17,1.7369 l 21.539,52.1084 q 2.431,4.1687 2.431,9.3795 0,3.4739 -4.863,9.3795 -3.821,4.5161 -3.821,6.6004 v 1.3896 q 16.327,-2.0844 32.654,-2.0844 15.285,0 30.918,2.0844 v -1.737 q -17.369,-6.253 -25.359,-24.3172 z m 7.989,82.6787 q -20.843,0.6947 -31.612,0.6947 -11.117,0 -31.265,-0.6947 v -1.3896 l 32.654,-68.4357 h 0.695 l 29.528,68.4357 z"
             inkscape:connector-curvature="0" />
          <path
             id="path2745"
             style="font-style:normal;font-variant:normal;font-weight:normal;font-stretch:normal;font-size:206.06764221px;line-height:1.25;font-family:ImperatorSmallCaps;-inkscape-font-specification:ImperatorSmallCaps;letter-spacing:0px;word-spacing:0px;fill:#000000;fill-opacity:1;stroke:none;stroke-width:0.86847299"
             d="m 7584.4355,4604.0125 v 2.0843 q 9.032,5.2109 11.463,11.4639 2.78,5.9056 3.475,15.2851 v 0.6948 q 1.041,18.0642 1.389,37.518 0.695,19.4538 0.695,38.2128 0,36.4759 -0.348,54.5401 h -1.736 l -154.242,-158.4095 q -5.557,0 -12.158,-0.3473 -6.253,-0.6948 -13.896,-1.3896 h -2.084 l 0.695,2.0843 q 9.032,5.2109 12.853,11.8113 3.822,6.253 4.516,13.8955 v 1.737 q 0.348,7.9899 0.348,25.3594 0,11.8112 0,26.4016 -0.348,20.8433 -0.348,24.6646 0,48.9819 -0.694,73.6465 0,7.2952 -4.517,12.8534 -4.515,5.5582 -11.463,8.6847 v 2.0844 q 1.737,0 5.558,-0.3474 6.253,-0.6948 13.548,-0.6948 17.37,0 31.612,1.3896 v -2.0844 q -8.337,-3.1265 -12.506,-9.0321 -3.82,-5.9056 -4.515,-14.2429 -1.738,-40.6446 -1.738,-72.9518 0,-5.9056 -0.347,-18.759 -0.347,-13.5482 -0.347,-20.496 0,-13.2007 0.694,-19.8012 h 1.738 l 154.24,154.9356 q 6.601,7.2952 8.338,7.2952 2.779,0 2.779,-4.8634 0,-0.6948 -0.348,-3.4739 -0.347,-4.1687 -0.347,-7.99 -0.694,-15.9799 -0.694,-27.7911 0,-9.3795 0.346,-33.002 0.348,-17.0221 0.348,-26.0542 v -32.6546 q 0,-28.4859 1.39,-41.3393 0.695,-9.7269 3.82,-17.3694 3.475,-7.6426 11.117,-11.1165 v -1.7369 q -19.453,1.3895 -29.528,1.3895 -4.168,0 -11.811,-1.0421 -4.517,-0.6948 -7.295,-1.0422 z"
             inkscape:connector-curvature="0" />
        </g>
      </g>
      <g
         id="g2787"
         transform="matrix(0.13187107,0,0,0.13187107,18133.306,5088.703)">
        <g
           id="g2783"
           transform="translate(1236.744,2529.2059)">
          <g
             style="fill:#000000;fill-opacity:1"
             transform="matrix(0.64617413,1.9814737,-1.9814737,0.64617413,3591.3141,7038.0405)"
             id="g2767">
            <g
               style="fill:#000000;fill-opacity:1"
               id="g2763"
               transform="translate(-876.3,-155.575)">
              <path
                 style="opacity:1;fill:#000000;fill-opacity:1;fill-rule:evenodd;stroke:none;stroke-width:0.26458332;stroke-linecap:round;stroke-linejoin:round;stroke-miterlimit:4;stroke-dasharray:none;stroke-dashoffset:0;stroke-opacity:1"
                 id="path2751"
                 d="m 182.52075,211.34714 c -8.60711,0 -66.97326,-42.40549 -69.633,-50.59134 -2.65975,-8.18585 19.63413,-76.799377 26.59744,-81.858512 6.9633,-5.059134 79.10782,-5.059136 86.07113,-2e-6 6.9633,5.059134 29.25718,73.672654 26.59744,81.858504 -2.65974,8.18586 -61.02589,50.59135 -69.63301,50.59135 z"
                 inkscape:connector-curvature="0" />
              <path
                 d="m 590.41773,-349.45018 c -8.60712,0 -66.97327,-42.40549 -69.63301,-50.59134 -2.65975,-8.18585 19.63414,-76.79937 26.59744,-81.85851 6.9633,-5.05913 79.10783,-5.05914 86.07113,0 6.9633,5.05913 29.25719,73.67266 26.59744,81.85851 -2.65974,8.18585 -61.02589,50.59134 -69.633,50.59134 z"
                 id="path2753"
                 style="opacity:1;fill:#000000;fill-opacity:1;fill-rule:evenodd;stroke:none;stroke-width:0.26458332;stroke-linecap:round;stroke-linejoin:round;stroke-miterlimit:4;stroke-dasharray:none;stroke-dashoffset:0;stroke-opacity:1"
                 transform="rotate(35.999994,-589.17783,-614.88202)"
                 inkscape:connector-curvature="0" />
              <path
                 transform="rotate(35.999994,-363.84066,-614.88202)"
                 style="opacity:1;fill:#000000;fill-opacity:1;fill-rule:evenodd;stroke:none;stroke-width:0.26458332;stroke-linecap:round;stroke-linejoin:round;stroke-miterlimit:4;stroke-dasharray:none;stroke-dashoffset:0;stroke-opacity:1"
                 id="path2755"
                 d="m 590.41773,-349.45018 c -8.60712,0 -66.97327,-42.40549 -69.63301,-50.59134 -2.65975,-8.18585 19.63414,-76.79937 26.59744,-81.85851 6.9633,-5.05913 79.10783,-5.05914 86.07113,0 6.9633,5.05913 29.25719,73.67266 26.59744,81.85851 -2.65974,8.18585 -61.02589,50.59134 -69.633,50.59134 z"
                 inkscape:connector-curvature="0" />
              <path
                 d="m 590.41773,-349.45018 c -8.60712,0 -66.97327,-42.40549 -69.63301,-50.59134 -2.65975,-8.18585 19.63414,-76.79937 26.59744,-81.85851 6.9633,-5.05913 79.10783,-5.05914 86.07113,0 6.9633,5.05913 29.25719,73.67266 26.59744,81.85851 -2.65974,8.18585 -61.02589,50.59134 -69.633,50.59134 z"
                 id="path2757"
                 style="opacity:1;fill:#000000;fill-opacity:1;fill-rule:evenodd;stroke:none;stroke-width:0.26458332;stroke-linecap:round;stroke-linejoin:round;stroke-miterlimit:4;stroke-dasharray:none;stroke-dashoffset:0;stroke-opacity:1"
                 transform="rotate(35.999994,-658.81087,-829.19041)"
                 inkscape:connector-curvature="0" />
              <path
                 transform="rotate(35.999994,-476.50926,-961.64029)"
                 style="opacity:1;fill:#000000;fill-opacity:1;fill-rule:evenodd;stroke:none;stroke-width:0.26458332;stroke-linecap:round;stroke-linejoin:round;stroke-miterlimit:4;stroke-dasharray:none;stroke-dashoffset:0;stroke-opacity:1"
                 id="path2759"
                 d="m 590.41773,-349.45018 c -8.60712,0 -66.97327,-42.40549 -69.63301,-50.59134 -2.65975,-8.18585 19.63414,-76.79937 26.59744,-81.85851 6.9633,-5.05913 79.10783,-5.05914 86.07113,0 6.9633,5.05913 29.25719,73.67266 26.59744,81.85851 -2.65974,8.18585 -61.02589,50.59134 -69.633,50.59134 z"
                 inkscape:connector-curvature="0" />
              <path
                 d="m 590.41773,-349.45018 c -8.60712,0 -66.97327,-42.40549 -69.63301,-50.59134 -2.65975,-8.18585 19.63414,-76.79937 26.59744,-81.85851 6.9633,-5.05913 79.10783,-5.05914 86.07113,0 6.9633,5.05913 29.25719,73.67266 26.59744,81.85851 -2.65974,8.18585 -61.02589,50.59134 -69.633,50.59134 z"
                 id="path2761"
                 style="opacity:1;fill:#000000;fill-opacity:1;fill-rule:evenodd;stroke:none;stroke-width:0.26458332;stroke-linecap:round;stroke-linejoin:round;stroke-miterlimit:4;stroke-dasharray:none;stroke-dashoffset:0;stroke-opacity:1"
                 transform="rotate(35.999994,-294.20763,-829.1904)"
                 inkscape:connector-curvature="0" />
            </g>
            <circle
               style="opacity:1;fill:#000000;fill-opacity:1;fill-rule:evenodd;stroke:none;stroke-width:0.2261595;stroke-linecap:round;stroke-linejoin:round;stroke-miterlimit:4;stroke-dasharray:none;stroke-dashoffset:0;stroke-opacity:1"
               id="circle2765"
               cx="-693.77924"
               cy="-12.349963"
               r="45.257057" />
          </g>
          <g
             id="g2781">
            <path
               d="m 590.41773,-349.45018 c -8.60712,0 -66.97327,-42.40549 -69.63301,-50.59134 -2.65975,-8.18585 19.63414,-76.79937 26.59744,-81.85851 6.9633,-5.05913 79.10783,-5.05914 86.07113,0 6.9633,5.05913 29.25719,73.67266 26.59744,81.85851 -2.65974,8.18585 -61.02589,50.59134 -69.633,50.59134 z"
               id="path2769"
               style="opacity:1;fill:#d40000;fill-opacity:1;fill-rule:evenodd;stroke:none;stroke-width:0.26458332;stroke-linecap:round;stroke-linejoin:round;stroke-miterlimit:4;stroke-dasharray:none;stroke-dashoffset:0;stroke-opacity:1"
               transform="matrix(-0.51942457,1.6044881,-1.6044881,-0.51942457,2687.337,4641.0127)"
               inkscape:connector-curvature="0" />
            <path
               transform="matrix(-0.51942457,1.6044881,-1.6044881,-0.51942457,2922.2049,4640.7604)"
               style="opacity:1;fill:#d40000;fill-opacity:1;fill-rule:evenodd;stroke:none;stroke-width:0.26458332;stroke-linecap:round;stroke-linejoin:round;stroke-miterlimit:4;stroke-dasharray:none;stroke-dashoffset:0;stroke-opacity:1"
               id="path2771"
               d="m 590.41773,-349.45018 c -8.60712,0 -66.97327,-42.40549 -69.63301,-50.59134 -2.65975,-8.18585 19.63414,-76.79937 26.59744,-81.85851 6.9633,-5.05913 79.10783,-5.05914 86.07113,0 6.9633,5.05913 29.25719,73.67266 26.59744,81.85851 -2.65974,8.18585 -61.02589,50.59134 -69.633,50.59134 z"
               inkscape:connector-curvature="0" />
            <path
               d="m 590.41773,-349.45018 c -8.60712,0 -66.97327,-42.40549 -69.63301,-50.59134 -2.65975,-8.18585 19.63414,-76.79937 26.59744,-81.85851 6.9633,-5.05913 79.10783,-5.05914 86.07113,0 6.9633,5.05913 29.25719,73.67266 26.59744,81.85851 -2.65974,8.18585 -61.02589,50.59134 -69.633,50.59134 z"
               id="path2773"
               style="opacity:1;fill:#d40000;fill-opacity:1;fill-rule:evenodd;stroke:none;stroke-width:0.26458332;stroke-linecap:round;stroke-linejoin:round;stroke-miterlimit:4;stroke-dasharray:none;stroke-dashoffset:0;stroke-opacity:1"
               transform="matrix(-0.51942457,1.6044881,-1.6044881,-0.51942457,2614.5188,4417.718)"
               inkscape:connector-curvature="0" />
            <path
               transform="matrix(-0.51942457,1.6044881,-1.6044881,-0.51942457,2804.3826,4279.4619)"
               style="opacity:1;fill:#d40000;fill-opacity:1;fill-rule:evenodd;stroke:none;stroke-width:0.26458332;stroke-linecap:round;stroke-linejoin:round;stroke-miterlimit:4;stroke-dasharray:none;stroke-dashoffset:0;stroke-opacity:1"
               id="path2775"
               d="m 590.41773,-349.45018 c -8.60712,0 -66.97327,-42.40549 -69.63301,-50.59134 -2.65975,-8.18585 19.63414,-76.79937 26.59744,-81.85851 6.9633,-5.05913 79.10783,-5.05914 86.07113,0 6.9633,5.05913 29.25719,73.67266 26.59744,81.85851 -2.65974,8.18585 -61.02589,50.59134 -69.633,50.59134 z"
               inkscape:connector-curvature="0" />
            <path
               d="m 590.41773,-349.45018 c -8.60712,0 -66.97327,-42.40549 -69.63301,-50.59134 -2.65975,-8.18585 19.63414,-76.79937 26.59744,-81.85851 6.9633,-5.05913 79.10783,-5.05914 86.07113,0 6.9633,5.05913 29.25719,73.67266 26.59744,81.85851 -2.65974,8.18585 -61.02589,50.59134 -69.633,50.59134 z"
               id="path2777"
               style="opacity:1;fill:#d40000;fill-opacity:1;fill-rule:evenodd;stroke:none;stroke-width:0.26458332;stroke-linecap:round;stroke-linejoin:round;stroke-miterlimit:4;stroke-dasharray:none;stroke-dashoffset:0;stroke-opacity:1"
               transform="matrix(-0.51942457,1.6044881,-1.6044881,-0.51942457,2994.5431,4417.3096)"
               inkscape:connector-curvature="0" />
            <path
               transform="matrix(0.52287094,1.6033683,-1.6033683,0.52287094,3301.9517,5281.8912)"
               style="opacity:1;fill:#d40000;fill-opacity:1;fill-rule:evenodd;stroke:none;stroke-width:0.26458332;stroke-linecap:round;stroke-linejoin:round;stroke-miterlimit:4;stroke-dasharray:none;stroke-dashoffset:0;stroke-opacity:1"
               id="path2779"
               d="m 182.52075,211.34714 c -8.60711,0 -66.97326,-42.40549 -69.633,-50.59134 -2.65975,-8.18585 19.63413,-76.799377 26.59744,-81.858512 6.9633,-5.059134 79.10782,-5.059136 86.07113,-2e-6 6.9633,5.059134 29.25718,73.672654 26.59744,81.858504 -2.65974,8.18586 -61.02589,50.59135 -69.63301,50.59135 z"
               inkscape:connector-curvature="0" />
          </g>
        </g>
        <circle
           style="opacity:1;fill:#ffa900;fill-opacity:1;fill-rule:evenodd;stroke:none;stroke-width:14.55208302;stroke-linecap:round;stroke-linejoin:round;stroke-miterlimit:4;stroke-dasharray:none;stroke-dashoffset:0;stroke-opacity:1"
           id="circle2785"
           cx="4412.6938"
           cy="8184.561"
           r="77.174072" />
      </g>
    </g>
  </g>
</svg>
